<svg width="18" height="16" viewBox="0 0 18 16" fill="none" xmlns="http://www.w3.org/2000/svg">
  <path
    d="M7.11087 11.5556V10.6667H0.897534L0.888645 14.2222C0.888645 15.2089 1.67976 16 2.66642 16H15.1109C16.0975 16 16.8886 15.2089 16.8886 14.2222V10.6667H10.6664V11.5556H7.11087ZM15.9998 3.55556H12.4353V1.77778L10.6575 0H7.10198L5.3242 1.77778V3.55556H1.77753C0.799756 3.55556 -0.000244141 4.35556 -0.000244141 5.33333V8C-0.000244141 8.98667 0.790867 9.77778 1.77753 9.77778H7.11087V8H10.6664V9.77778H15.9998C16.9775 9.77778 17.7775 8.97778 17.7775 8V5.33333C17.7775 4.35556 16.9775 3.55556 15.9998 3.55556ZM10.6664 3.55556H7.11087V1.77778H10.6664V3.55556Z"
    fill="#7C7C7C"/>
</svg>
