<svg width="16" height="10" viewBox="0 0 16 10" fill="none" xmlns="http://www.w3.org/2000/svg">
<path d="M14.1639 0H1.24997C0.560748 0 0 0.560748 0 1.24997V8.75003C0 9.43925 0.560748 10 1.24997 10H14.1643C14.8535 10 15.4142 9.43925 15.4142 8.75003L15.4141 1.24997C15.4141 0.560748 14.8534 0 14.1641 0H14.1639ZM13.9099 0.724687L8.43777 4.57527C8.00067 4.88268 7.41316 4.88268 6.9762 4.57527L1.50405 0.724687H13.9099ZM0.732837 8.84315C0.72735 8.8129 0.724539 8.78185 0.724539 8.75014V1.25008C0.724539 1.19133 0.734309 1.13472 0.752109 1.08186L5.29956 4.28165L0.732837 8.84315ZM1.32586 9.27514L5.9014 4.70508L6.55931 5.16802C6.90271 5.40972 7.30476 5.53043 7.70705 5.53043C8.10921 5.53043 8.51164 5.40958 8.85479 5.16802L9.5127 4.70508L14.0882 9.27514H1.32586ZM14.6893 8.74999C14.6893 8.78171 14.6865 8.81289 14.681 8.843L10.1144 4.28151L14.6618 1.08171C14.6798 1.13458 14.6894 1.19105 14.6894 1.24994L14.6893 8.74999Z" fill="#246BFD"/>
</svg>
