<svg width="297" height="36" viewBox="0 0 297 36" fill="none" xmlns="http://www.w3.org/2000/svg">
<path d="M4.992 29.288C4.05333 29.288 3.328 29.032 2.816 28.52C2.304 27.9867 2.048 27.2507 2.048 26.312V9.416C2.048 8.456 2.304 7.72 2.816 7.208C3.34933 6.696 4.08533 6.44 5.024 6.44H12.896C15.456 6.44 17.4293 7.06933 18.816 8.328C20.224 9.56533 20.928 11.2933 20.928 13.512C20.928 14.9413 20.608 16.1893 19.968 17.256C19.3493 18.3013 18.4427 19.112 17.248 19.688C16.0747 20.2427 14.624 20.52 12.896 20.52L13.152 19.944H14.688C15.6053 19.944 16.416 20.168 17.12 20.616C17.824 21.0427 18.4107 21.704 18.88 22.6L20.48 25.48C20.8213 26.0987 20.9813 26.7067 20.96 27.304C20.9387 27.88 20.704 28.36 20.256 28.744C19.8293 29.1067 19.2 29.288 18.368 29.288C17.536 29.288 16.8533 29.1173 16.32 28.776C15.808 28.4347 15.3493 27.9013 14.944 27.176L12.032 21.832C11.776 21.3627 11.4453 21.0427 11.04 20.872C10.656 20.68 10.208 20.584 9.696 20.584H7.936V26.312C7.936 27.2507 7.69067 27.9867 7.2 28.52C6.70933 29.032 5.97333 29.288 4.992 29.288ZM7.936 16.424H11.84C12.9707 16.424 13.8347 16.2 14.432 15.752C15.0293 15.304 15.328 14.6107 15.328 13.672C15.328 12.776 15.0293 12.104 14.432 11.656C13.8347 11.1867 12.9707 10.952 11.84 10.952H7.936V16.424ZM32.3963 29.352C30.4763 29.352 28.8123 29.0213 27.4043 28.36C26.0176 27.6773 24.9509 26.7173 24.2043 25.48C23.4576 24.2427 23.0843 22.7813 23.0843 21.096C23.0843 19.4747 23.4363 18.056 24.1403 16.84C24.8656 15.6027 25.8469 14.6427 27.0843 13.96C28.3429 13.256 29.7723 12.904 31.3723 12.904C32.5456 12.904 33.6123 13.096 34.5723 13.48C35.5323 13.8427 36.3536 14.3867 37.0363 15.112C37.7189 15.816 38.2309 16.6693 38.5723 17.672C38.9349 18.6747 39.1163 19.7947 39.1163 21.032C39.1163 21.4587 38.9989 21.7787 38.7643 21.992C38.5296 22.184 38.1563 22.28 37.6443 22.28H27.8523V19.592H34.9563L34.4443 20.008C34.4443 19.2187 34.3376 18.5787 34.1243 18.088C33.9109 17.5973 33.5909 17.224 33.1643 16.968C32.7589 16.712 32.2469 16.584 31.6283 16.584C30.9669 16.584 30.3909 16.744 29.9003 17.064C29.4309 17.3627 29.0683 17.8107 28.8123 18.408C28.5563 19.0053 28.4283 19.752 28.4283 20.648V20.936C28.4283 22.4507 28.7589 23.5387 29.4203 24.2C30.1029 24.84 31.1483 25.16 32.5563 25.16C33.0256 25.16 33.5589 25.1067 34.1563 25C34.7749 24.872 35.3616 24.7013 35.9163 24.488C36.4709 24.2747 36.9509 24.2427 37.3563 24.392C37.7616 24.52 38.0709 24.7547 38.2843 25.096C38.5189 25.416 38.6469 25.7893 38.6683 26.216C38.6896 26.6213 38.5936 27.0267 38.3803 27.432C38.1669 27.816 37.8149 28.1147 37.3243 28.328C36.5776 28.6693 35.7776 28.9253 34.9243 29.096C34.0923 29.2667 33.2496 29.352 32.3963 29.352ZM49.6023 29.352C47.8316 29.352 46.2849 29.0213 44.9623 28.36C43.6609 27.6987 42.6476 26.7493 41.9223 25.512C41.1969 24.2533 40.8343 22.7813 40.8343 21.096C40.8343 19.816 41.0369 18.6747 41.4423 17.672C41.8476 16.648 42.4343 15.784 43.2023 15.08C43.9916 14.376 44.9196 13.8427 45.9863 13.48C47.0743 13.096 48.2796 12.904 49.6023 12.904C50.2209 12.904 50.8716 12.968 51.5543 13.096C52.2369 13.2027 52.9409 13.416 53.6663 13.736C54.1783 13.928 54.5303 14.2267 54.7223 14.632C54.9356 15.016 55.0209 15.432 54.9783 15.88C54.9569 16.328 54.8289 16.7333 54.5943 17.096C54.3809 17.4587 54.0716 17.704 53.6663 17.832C53.2823 17.96 52.8449 17.9067 52.3543 17.672C52.0129 17.5013 51.6503 17.384 51.2663 17.32C50.9036 17.2347 50.5516 17.192 50.2103 17.192C49.6343 17.192 49.1223 17.2773 48.6743 17.448C48.2476 17.6187 47.8849 17.8747 47.5863 18.216C47.2876 18.536 47.0529 18.9413 46.8823 19.432C46.7329 19.9227 46.6583 20.4773 46.6583 21.096C46.6583 22.3333 46.9676 23.304 47.5863 24.008C48.2049 24.712 49.0796 25.064 50.2103 25.064C50.5516 25.064 50.9036 25.032 51.2663 24.968C51.6289 24.8827 51.9916 24.7547 52.3543 24.584C52.8449 24.3493 53.2823 24.3067 53.6663 24.456C54.0503 24.584 54.3596 24.8293 54.5943 25.192C54.8289 25.5547 54.9569 25.96 54.9783 26.408C54.9996 26.8347 54.9036 27.2507 54.6903 27.656C54.4769 28.04 54.1143 28.328 53.6023 28.52C52.8983 28.84 52.2049 29.0533 51.5223 29.16C50.8609 29.288 50.2209 29.352 49.6023 29.352ZM64.7258 29.352C62.9764 29.352 61.4511 29.0213 60.1498 28.36C58.8484 27.6987 57.8351 26.7493 57.1098 25.512C56.3844 24.2747 56.0218 22.8133 56.0218 21.128C56.0218 19.848 56.2244 18.7067 56.6298 17.704C57.0351 16.68 57.6218 15.816 58.3898 15.112C59.1578 14.3867 60.0751 13.8427 61.1418 13.48C62.2084 13.096 63.4031 12.904 64.7258 12.904C66.4751 12.904 68.0004 13.2347 69.3018 13.896C70.6031 14.5573 71.6058 15.5067 72.3098 16.744C73.0351 17.96 73.3978 19.4213 73.3978 21.128C73.3978 22.3867 73.1951 23.528 72.7898 24.552C72.3844 25.576 71.7978 26.4507 71.0298 27.176C70.2831 27.88 69.3658 28.424 68.2778 28.808C67.2111 29.1707 66.0271 29.352 64.7258 29.352ZM64.7258 25.16C65.3018 25.16 65.8138 25.0213 66.2618 24.744C66.7098 24.4453 67.0511 24.008 67.2858 23.432C67.5418 22.8347 67.6698 22.0667 67.6698 21.128C67.6698 19.6987 67.3924 18.6747 66.8378 18.056C66.2831 17.416 65.5791 17.096 64.7258 17.096C64.1498 17.096 63.6378 17.2347 63.1898 17.512C62.7418 17.7893 62.3898 18.2267 62.1338 18.824C61.8778 19.4 61.7498 20.168 61.7498 21.128C61.7498 22.536 62.0271 23.56 62.5818 24.2C63.1364 24.84 63.8511 25.16 64.7258 25.16ZM78.8878 29.288C77.9918 29.288 77.2984 29.0427 76.8078 28.552C76.3171 28.0613 76.0718 27.3467 76.0718 26.408V15.816C76.0718 14.8987 76.3064 14.1947 76.7758 13.704C77.2664 13.2133 77.9598 12.968 78.8558 12.968C79.7518 12.968 80.4344 13.2133 80.9038 13.704C81.3731 14.1947 81.6078 14.8987 81.6078 15.816V17.576L81.2558 16.008C81.7038 15.0693 82.3651 14.3227 83.2398 13.768C84.1358 13.192 85.1918 12.904 86.4078 12.904C87.5598 12.904 88.5411 13.1813 89.3518 13.736C90.1838 14.2907 90.7811 15.1333 91.1438 16.264H90.6958C91.1864 15.2187 91.9224 14.3973 92.9038 13.8C93.8851 13.2027 94.9731 12.904 96.1678 12.904C97.4051 12.904 98.4184 13.1493 99.2078 13.64C99.9971 14.1093 100.584 14.856 100.968 15.88C101.373 16.8827 101.576 18.152 101.576 19.688V26.408C101.576 27.3467 101.32 28.0613 100.808 28.552C100.317 29.0427 99.6131 29.288 98.6958 29.288C97.7998 29.288 97.1064 29.0427 96.6158 28.552C96.1251 28.0613 95.8798 27.3467 95.8798 26.408V19.848C95.8798 18.9307 95.7411 18.2693 95.4638 17.864C95.1864 17.4587 94.7278 17.256 94.0878 17.256C93.2984 17.256 92.6904 17.5333 92.2638 18.088C91.8584 18.6427 91.6558 19.432 91.6558 20.456V26.408C91.6558 27.3467 91.4104 28.0613 90.9198 28.552C90.4291 29.0427 89.7251 29.288 88.8078 29.288C87.8904 29.288 87.1864 29.0427 86.6958 28.552C86.2051 28.0613 85.9598 27.3467 85.9598 26.408V19.848C85.9598 18.9307 85.8211 18.2693 85.5438 17.864C85.2664 17.4587 84.8078 17.256 84.1678 17.256C83.3998 17.256 82.8024 17.5333 82.3758 18.088C81.9704 18.6427 81.7678 19.432 81.7678 20.456V26.408C81.7678 28.328 80.8078 29.288 78.8878 29.288ZM107.763 29.288C106.867 29.288 106.173 29.0427 105.683 28.552C105.192 28.0613 104.947 27.3467 104.947 26.408V15.816C104.947 14.8987 105.181 14.1947 105.651 13.704C106.141 13.2133 106.835 12.968 107.731 12.968C108.627 12.968 109.309 13.2133 109.779 13.704C110.248 14.1947 110.483 14.8987 110.483 15.816V17.576L110.131 16.008C110.579 15.0693 111.24 14.3227 112.115 13.768C113.011 13.192 114.067 12.904 115.283 12.904C116.435 12.904 117.416 13.1813 118.227 13.736C119.059 14.2907 119.656 15.1333 120.019 16.264H119.571C120.061 15.2187 120.797 14.3973 121.779 13.8C122.76 13.2027 123.848 12.904 125.043 12.904C126.28 12.904 127.293 13.1493 128.083 13.64C128.872 14.1093 129.459 14.856 129.843 15.88C130.248 16.8827 130.451 18.152 130.451 19.688V26.408C130.451 27.3467 130.195 28.0613 129.683 28.552C129.192 29.0427 128.488 29.288 127.571 29.288C126.675 29.288 125.981 29.0427 125.491 28.552C125 28.0613 124.755 27.3467 124.755 26.408V19.848C124.755 18.9307 124.616 18.2693 124.339 17.864C124.061 17.4587 123.603 17.256 122.963 17.256C122.173 17.256 121.565 17.5333 121.139 18.088C120.733 18.6427 120.531 19.432 120.531 20.456V26.408C120.531 27.3467 120.285 28.0613 119.795 28.552C119.304 29.0427 118.6 29.288 117.683 29.288C116.765 29.288 116.061 29.0427 115.571 28.552C115.08 28.0613 114.835 27.3467 114.835 26.408V19.848C114.835 18.9307 114.696 18.2693 114.419 17.864C114.141 17.4587 113.683 17.256 113.043 17.256C112.275 17.256 111.677 17.5333 111.251 18.088C110.845 18.6427 110.643 19.432 110.643 20.456V26.408C110.643 28.328 109.683 29.288 107.763 29.288ZM142.334 29.352C140.414 29.352 138.75 29.0213 137.342 28.36C135.955 27.6773 134.888 26.7173 134.142 25.48C133.395 24.2427 133.022 22.7813 133.022 21.096C133.022 19.4747 133.374 18.056 134.078 16.84C134.803 15.6027 135.784 14.6427 137.022 13.96C138.28 13.256 139.71 12.904 141.31 12.904C142.483 12.904 143.55 13.096 144.51 13.48C145.47 13.8427 146.291 14.3867 146.974 15.112C147.656 15.816 148.168 16.6693 148.51 17.672C148.872 18.6747 149.054 19.7947 149.054 21.032C149.054 21.4587 148.936 21.7787 148.702 21.992C148.467 22.184 148.094 22.28 147.582 22.28H137.79V19.592H144.894L144.382 20.008C144.382 19.2187 144.275 18.5787 144.062 18.088C143.848 17.5973 143.528 17.224 143.102 16.968C142.696 16.712 142.184 16.584 141.566 16.584C140.904 16.584 140.328 16.744 139.838 17.064C139.368 17.3627 139.006 17.8107 138.75 18.408C138.494 19.0053 138.366 19.752 138.366 20.648V20.936C138.366 22.4507 138.696 23.5387 139.358 24.2C140.04 24.84 141.086 25.16 142.494 25.16C142.963 25.16 143.496 25.1067 144.094 25C144.712 24.872 145.299 24.7013 145.854 24.488C146.408 24.2747 146.888 24.2427 147.294 24.392C147.699 24.52 148.008 24.7547 148.222 25.096C148.456 25.416 148.584 25.7893 148.606 26.216C148.627 26.6213 148.531 27.0267 148.318 27.432C148.104 27.816 147.752 28.1147 147.262 28.328C146.515 28.6693 145.715 28.9253 144.862 29.096C144.03 29.2667 143.187 29.352 142.334 29.352ZM154.324 29.288C153.428 29.288 152.734 29.0427 152.244 28.552C151.753 28.0613 151.508 27.3467 151.508 26.408V15.816C151.508 14.8987 151.742 14.1947 152.212 13.704C152.702 13.2133 153.396 12.968 154.292 12.968C155.188 12.968 155.87 13.2133 156.34 13.704C156.809 14.1947 157.044 14.8987 157.044 15.816V17.32L156.692 16.008C157.204 15.0053 157.929 14.2373 158.868 13.704C159.828 13.1707 160.916 12.904 162.132 12.904C163.39 12.904 164.425 13.1493 165.236 13.64C166.046 14.1093 166.654 14.856 167.06 15.88C167.465 16.8827 167.668 18.152 167.668 19.688V26.408C167.668 27.3467 167.422 28.0613 166.932 28.552C166.441 29.0427 165.737 29.288 164.82 29.288C163.902 29.288 163.198 29.0427 162.708 28.552C162.217 28.0613 161.972 27.3467 161.972 26.408V19.912C161.972 18.952 161.801 18.2693 161.46 17.864C161.14 17.4587 160.66 17.256 160.02 17.256C159.166 17.256 158.484 17.5333 157.972 18.088C157.46 18.6213 157.204 19.3467 157.204 20.264V26.408C157.204 28.328 156.244 29.288 154.324 29.288ZM177.058 29.352C175.714 29.352 174.519 29.0213 173.474 28.36C172.45 27.6987 171.639 26.7493 171.042 25.512C170.466 24.2747 170.178 22.8133 170.178 21.128C170.178 19.4 170.466 17.928 171.042 16.712C171.639 15.496 172.45 14.5573 173.474 13.896C174.519 13.2347 175.714 12.904 177.058 12.904C178.231 12.904 179.287 13.1813 180.226 13.736C181.165 14.2907 181.794 15.0053 182.114 15.88H181.762V9.032C181.762 8.09333 182.007 7.37867 182.498 6.888C182.989 6.39733 183.693 6.152 184.61 6.152C185.506 6.152 186.199 6.39733 186.69 6.888C187.202 7.37867 187.458 8.09333 187.458 9.032V26.408C187.458 27.3467 187.213 28.0613 186.722 28.552C186.253 29.0427 185.559 29.288 184.642 29.288C183.746 29.288 183.053 29.0427 182.562 28.552C182.071 28.0613 181.826 27.3467 181.826 26.408V24.584L182.178 26.152C181.879 27.112 181.25 27.8907 180.29 28.488C179.351 29.064 178.274 29.352 177.058 29.352ZM178.882 25.16C179.458 25.16 179.97 25.0213 180.418 24.744C180.866 24.4453 181.207 24.008 181.442 23.432C181.698 22.8347 181.826 22.0667 181.826 21.128C181.826 19.6987 181.549 18.6747 180.994 18.056C180.439 17.416 179.735 17.096 178.882 17.096C178.306 17.096 177.794 17.2347 177.346 17.512C176.898 17.7893 176.546 18.2267 176.29 18.824C176.034 19.4 175.906 20.168 175.906 21.128C175.906 22.536 176.183 23.56 176.738 24.2C177.293 24.84 178.007 25.16 178.882 25.16ZM199.334 29.352C197.414 29.352 195.75 29.0213 194.342 28.36C192.955 27.6773 191.888 26.7173 191.142 25.48C190.395 24.2427 190.022 22.7813 190.022 21.096C190.022 19.4747 190.374 18.056 191.078 16.84C191.803 15.6027 192.784 14.6427 194.022 13.96C195.28 13.256 196.71 12.904 198.31 12.904C199.483 12.904 200.55 13.096 201.51 13.48C202.47 13.8427 203.291 14.3867 203.974 15.112C204.656 15.816 205.168 16.6693 205.51 17.672C205.872 18.6747 206.054 19.7947 206.054 21.032C206.054 21.4587 205.936 21.7787 205.702 21.992C205.467 22.184 205.094 22.28 204.582 22.28H194.79V19.592H201.894L201.382 20.008C201.382 19.2187 201.275 18.5787 201.062 18.088C200.848 17.5973 200.528 17.224 200.102 16.968C199.696 16.712 199.184 16.584 198.566 16.584C197.904 16.584 197.328 16.744 196.838 17.064C196.368 17.3627 196.006 17.8107 195.75 18.408C195.494 19.0053 195.366 19.752 195.366 20.648V20.936C195.366 22.4507 195.696 23.5387 196.358 24.2C197.04 24.84 198.086 25.16 199.494 25.16C199.963 25.16 200.496 25.1067 201.094 25C201.712 24.872 202.299 24.7013 202.854 24.488C203.408 24.2747 203.888 24.2427 204.294 24.392C204.699 24.52 205.008 24.7547 205.222 25.096C205.456 25.416 205.584 25.7893 205.606 26.216C205.627 26.6213 205.531 27.0267 205.318 27.432C205.104 27.816 204.752 28.1147 204.262 28.328C203.515 28.6693 202.715 28.9253 201.862 29.096C201.03 29.2667 200.187 29.352 199.334 29.352ZM214.652 29.352C213.308 29.352 212.113 29.0213 211.068 28.36C210.044 27.6987 209.233 26.7493 208.636 25.512C208.06 24.2747 207.772 22.8133 207.772 21.128C207.772 19.4 208.06 17.928 208.636 16.712C209.233 15.496 210.044 14.5573 211.068 13.896C212.113 13.2347 213.308 12.904 214.652 12.904C215.825 12.904 216.881 13.1813 217.82 13.736C218.758 14.2907 219.388 15.0053 219.708 15.88H219.356V9.032C219.356 8.09333 219.601 7.37867 220.092 6.888C220.582 6.39733 221.286 6.152 222.204 6.152C223.1 6.152 223.793 6.39733 224.284 6.888C224.796 7.37867 225.052 8.09333 225.052 9.032V26.408C225.052 27.3467 224.806 28.0613 224.316 28.552C223.846 29.0427 223.153 29.288 222.236 29.288C221.34 29.288 220.646 29.0427 220.156 28.552C219.665 28.0613 219.42 27.3467 219.42 26.408V24.584L219.772 26.152C219.473 27.112 218.844 27.8907 217.884 28.488C216.945 29.064 215.868 29.352 214.652 29.352ZM216.476 25.16C217.052 25.16 217.564 25.0213 218.012 24.744C218.46 24.4453 218.801 24.008 219.036 23.432C219.292 22.8347 219.42 22.0667 219.42 21.128C219.42 19.6987 219.142 18.6747 218.588 18.056C218.033 17.416 217.329 17.096 216.476 17.096C215.9 17.096 215.388 17.2347 214.94 17.512C214.492 17.7893 214.14 18.2267 213.884 18.824C213.628 19.4 213.5 20.168 213.5 21.128C213.5 22.536 213.777 23.56 214.332 24.2C214.886 24.84 215.601 25.16 216.476 25.16ZM235.684 29.224L235.524 27.496L237.316 27.368C238.446 27.2827 239.321 26.8667 239.94 26.12C240.558 25.3733 240.868 24.3813 240.868 23.144V6.44H242.852V23.176C242.852 24.9467 242.393 26.344 241.476 27.368C240.558 28.392 239.236 28.968 237.508 29.096L235.684 29.224ZM254.486 29.256C253.035 29.256 251.777 28.936 250.71 28.296C249.643 27.6347 248.811 26.7067 248.214 25.512C247.638 24.296 247.35 22.8667 247.35 21.224C247.35 19.6027 247.638 18.1947 248.214 17C248.811 15.784 249.643 14.8453 250.71 14.184C251.777 13.5227 253.035 13.192 254.486 13.192C255.958 13.192 257.227 13.5227 258.294 14.184C259.361 14.8453 260.182 15.784 260.758 17C261.355 18.1947 261.654 19.6027 261.654 21.224C261.654 22.8667 261.355 24.296 260.758 25.512C260.182 26.7067 259.361 27.6347 258.294 28.296C257.227 28.936 255.958 29.256 254.486 29.256ZM254.486 27.624C256.065 27.624 257.323 27.0693 258.262 25.96C259.201 24.8293 259.67 23.2507 259.67 21.224C259.67 19.1973 259.201 17.6293 258.262 16.52C257.323 15.4107 256.065 14.856 254.486 14.856C252.907 14.856 251.649 15.4107 250.71 16.52C249.793 17.6293 249.334 19.1973 249.334 21.224C249.334 23.2507 249.793 24.8293 250.71 25.96C251.649 27.0693 252.907 27.624 254.486 27.624ZM273.202 29.256C271.943 29.256 270.834 28.9787 269.874 28.424C268.935 27.848 268.231 27.0587 267.762 26.056V29H265.81V6.44H267.762V16.36C268.231 15.3787 268.935 14.6107 269.874 14.056C270.834 13.48 271.943 13.192 273.202 13.192C275.293 13.192 276.957 13.9173 278.194 15.368C279.453 16.8187 280.082 18.7707 280.082 21.224C280.082 22.8667 279.794 24.296 279.218 25.512C278.663 26.7067 277.863 27.6347 276.818 28.296C275.794 28.936 274.589 29.256 273.202 29.256ZM272.914 27.624C274.493 27.624 275.751 27.0693 276.69 25.96C277.629 24.8293 278.098 23.2507 278.098 21.224C278.098 19.1973 277.629 17.6293 276.69 16.52C275.751 15.4107 274.493 14.856 272.914 14.856C271.335 14.856 270.077 15.4107 269.138 16.52C268.199 17.6293 267.73 19.1973 267.73 21.224C267.73 23.2507 268.199 24.8293 269.138 25.96C270.077 27.0693 271.335 27.624 272.914 27.624ZM289.272 29.256C288.12 29.256 287.011 29.0853 285.944 28.744C284.899 28.4027 284.035 27.912 283.352 27.272L284.056 25.832C284.846 26.472 285.688 26.9413 286.584 27.24C287.48 27.5173 288.398 27.656 289.336 27.656C290.659 27.656 291.651 27.4213 292.312 26.952C292.995 26.4613 293.336 25.7893 293.336 24.936C293.336 24.2747 293.112 23.752 292.664 23.368C292.216 22.984 291.512 22.6747 290.552 22.44L287.768 21.8C285.144 21.2027 283.832 19.848 283.832 17.736C283.832 16.3707 284.366 15.272 285.432 14.44C286.499 13.608 287.907 13.192 289.656 13.192C290.723 13.192 291.726 13.3733 292.664 13.736C293.603 14.0773 294.371 14.5787 294.968 15.24L294.2 16.68C293.582 16.0613 292.878 15.6027 292.088 15.304C291.299 14.984 290.478 14.824 289.624 14.824C288.387 14.824 287.427 15.08 286.744 15.592C286.083 16.104 285.752 16.7973 285.752 17.672C285.752 18.3333 285.955 18.8667 286.36 19.272C286.766 19.6773 287.427 19.9867 288.344 20.2L291.128 20.84C292.515 21.16 293.55 21.64 294.232 22.28C294.915 22.8987 295.256 23.7413 295.256 24.808C295.256 26.1947 294.712 27.2827 293.624 28.072C292.536 28.8613 291.086 29.256 289.272 29.256Z" fill="white"/>
</svg>
