<svg width="249" height="20" viewBox="0 0 249 20" fill="none" xmlns="http://www.w3.org/2000/svg">
<path d="M3.056 19.234C2.29333 19.234 1.704 19.026 1.288 18.61C0.872 18.1767 0.664 17.5787 0.664 16.816V3.088C0.664 2.308 0.872 1.71 1.288 1.294C1.72133 0.877999 2.31933 0.669999 3.082 0.669999H9.478C11.558 0.669999 13.1613 1.18133 14.288 2.204C15.432 3.20933 16.004 4.61333 16.004 6.416C16.004 7.57733 15.744 8.59133 15.224 9.458C14.7213 10.3073 13.9847 10.966 13.014 11.434C12.0607 11.8847 10.882 12.11 9.478 12.11L9.686 11.642H10.934C11.6793 11.642 12.338 11.824 12.91 12.188C13.482 12.5347 13.9587 13.072 14.34 13.8L15.64 16.14C15.9173 16.6427 16.0473 17.1367 16.03 17.622C16.0127 18.09 15.822 18.48 15.458 18.792C15.1113 19.0867 14.6 19.234 13.924 19.234C13.248 19.234 12.6933 19.0953 12.26 18.818C11.844 18.5407 11.4713 18.1073 11.142 17.518L8.776 13.176C8.568 12.7947 8.29933 12.5347 7.97 12.396C7.658 12.24 7.294 12.162 6.878 12.162H5.448V16.816C5.448 17.5787 5.24867 18.1767 4.85 18.61C4.45133 19.026 3.85333 19.234 3.056 19.234ZM5.448 8.782H8.62C9.53867 8.782 10.2407 8.6 10.726 8.236C11.2113 7.872 11.454 7.30867 11.454 6.546C11.454 5.818 11.2113 5.272 10.726 4.908C10.2407 4.52667 9.53867 4.336 8.62 4.336H5.448V8.782ZM25.322 19.286C23.762 19.286 22.41 19.0173 21.266 18.48C20.1393 17.9253 19.2726 17.1453 18.666 16.14C18.0593 15.1347 17.756 13.9473 17.756 12.578C17.756 11.2607 18.042 10.108 18.614 9.12C19.2033 8.11467 20.0006 7.33467 21.006 6.78C22.0286 6.208 23.19 5.922 24.49 5.922C25.4433 5.922 26.31 6.078 27.09 6.39C27.87 6.68467 28.5373 7.12667 29.092 7.716C29.6466 8.288 30.0626 8.98133 30.34 9.796C30.6346 10.6107 30.782 11.5207 30.782 12.526C30.782 12.8727 30.6866 13.1327 30.496 13.306C30.3053 13.462 30.002 13.54 29.586 13.54H21.63V11.356H27.402L26.986 11.694C26.986 11.0527 26.8993 10.5327 26.726 10.134C26.5526 9.73533 26.2926 9.432 25.946 9.224C25.6166 9.016 25.2006 8.912 24.698 8.912C24.1606 8.912 23.6926 9.042 23.294 9.302C22.9126 9.54467 22.618 9.90867 22.41 10.394C22.202 10.8793 22.098 11.486 22.098 12.214V12.448C22.098 13.6787 22.3666 14.5627 22.904 15.1C23.4586 15.62 24.308 15.88 25.452 15.88C25.8333 15.88 26.2666 15.8367 26.752 15.75C27.2546 15.646 27.7313 15.5073 28.182 15.334C28.6326 15.1607 29.0226 15.1347 29.352 15.256C29.6813 15.36 29.9326 15.5507 30.106 15.828C30.2966 16.088 30.4006 16.3913 30.418 16.738C30.4353 17.0673 30.3573 17.3967 30.184 17.726C30.0106 18.038 29.7246 18.2807 29.326 18.454C28.7193 18.7313 28.0693 18.9393 27.376 19.078C26.7 19.2167 26.0153 19.286 25.322 19.286ZM39.3018 19.286C37.8632 19.286 36.6065 19.0173 35.5318 18.48C34.4745 17.9427 33.6512 17.1713 33.0618 16.166C32.4725 15.1433 32.1778 13.9473 32.1778 12.578C32.1778 11.538 32.3425 10.6107 32.6718 9.796C33.0012 8.964 33.4778 8.262 34.1018 7.69C34.7432 7.118 35.4972 6.68467 36.3638 6.39C37.2478 6.078 38.2272 5.922 39.3018 5.922C39.8045 5.922 40.3332 5.974 40.8878 6.078C41.4425 6.16467 42.0145 6.338 42.6038 6.598C43.0198 6.754 43.3058 6.99667 43.4618 7.326C43.6352 7.638 43.7045 7.976 43.6698 8.34C43.6525 8.704 43.5485 9.03333 43.3578 9.328C43.1845 9.62267 42.9332 9.822 42.6038 9.926C42.2918 10.03 41.9365 9.98667 41.5378 9.796C41.2605 9.65733 40.9658 9.562 40.6538 9.51C40.3592 9.44067 40.0732 9.406 39.7958 9.406C39.3278 9.406 38.9118 9.47533 38.5478 9.614C38.2012 9.75267 37.9065 9.96067 37.6638 10.238C37.4212 10.498 37.2305 10.8273 37.0918 11.226C36.9705 11.6247 36.9098 12.0753 36.9098 12.578C36.9098 13.5833 37.1612 14.372 37.6638 14.944C38.1665 15.516 38.8772 15.802 39.7958 15.802C40.0732 15.802 40.3592 15.776 40.6538 15.724C40.9485 15.6547 41.2432 15.5507 41.5378 15.412C41.9365 15.2213 42.2918 15.1867 42.6038 15.308C42.9158 15.412 43.1672 15.6113 43.3578 15.906C43.5485 16.2007 43.6525 16.53 43.6698 16.894C43.6872 17.2407 43.6092 17.5787 43.4358 17.908C43.2625 18.22 42.9678 18.454 42.5518 18.61C41.9798 18.87 41.4165 19.0433 40.8618 19.13C40.3245 19.234 39.8045 19.286 39.3018 19.286ZM51.5897 19.286C50.1683 19.286 48.929 19.0173 47.8717 18.48C46.8143 17.9427 45.991 17.1713 45.4017 16.166C44.8123 15.1607 44.5177 13.9733 44.5177 12.604C44.5177 11.564 44.6823 10.6367 45.0117 9.822C45.341 8.99 45.8177 8.288 46.4417 7.716C47.0657 7.12667 47.811 6.68467 48.6777 6.39C49.5443 6.078 50.515 5.922 51.5897 5.922C53.011 5.922 54.2503 6.19067 55.3077 6.728C56.365 7.26533 57.1797 8.03667 57.7517 9.042C58.341 10.03 58.6357 11.2173 58.6357 12.604C58.6357 13.6267 58.471 14.554 58.1417 15.386C57.8123 16.218 57.3357 16.9287 56.7117 17.518C56.105 18.09 55.3597 18.532 54.4757 18.844C53.609 19.1387 52.647 19.286 51.5897 19.286ZM51.5897 15.88C52.0577 15.88 52.4737 15.7673 52.8377 15.542C53.2017 15.2993 53.479 14.944 53.6697 14.476C53.8777 13.9907 53.9817 13.3667 53.9817 12.604C53.9817 11.4427 53.7563 10.6107 53.3057 10.108C52.855 9.588 52.283 9.328 51.5897 9.328C51.1217 9.328 50.7057 9.44067 50.3417 9.666C49.9777 9.89133 49.6917 10.2467 49.4837 10.732C49.2757 11.2 49.1717 11.824 49.1717 12.604C49.1717 13.748 49.397 14.58 49.8477 15.1C50.2983 15.62 50.879 15.88 51.5897 15.88ZM63.0963 19.234C62.3683 19.234 61.805 19.0347 61.4063 18.636C61.0076 18.2373 60.8083 17.6567 60.8083 16.894V8.288C60.8083 7.54267 60.999 6.97067 61.3803 6.572C61.779 6.17333 62.3423 5.974 63.0703 5.974C63.7983 5.974 64.353 6.17333 64.7343 6.572C65.1156 6.97067 65.3063 7.54267 65.3063 8.288V9.718L65.0203 8.444C65.3843 7.68133 65.9216 7.07467 66.6323 6.624C67.3603 6.156 68.2183 5.922 69.2063 5.922C70.1423 5.922 70.9396 6.14733 71.5983 6.598C72.2743 7.04867 72.7596 7.73333 73.0543 8.652H72.6903C73.089 7.80267 73.687 7.13533 74.4843 6.65C75.2816 6.16467 76.1656 5.922 77.1363 5.922C78.1416 5.922 78.965 6.12133 79.6063 6.52C80.2476 6.90133 80.7243 7.508 81.0363 8.34C81.3656 9.15467 81.5303 10.186 81.5303 11.434V16.894C81.5303 17.6567 81.3223 18.2373 80.9063 18.636C80.5076 19.0347 79.9356 19.234 79.1903 19.234C78.4623 19.234 77.899 19.0347 77.5003 18.636C77.1016 18.2373 76.9023 17.6567 76.9023 16.894V11.564C76.9023 10.8187 76.7896 10.2813 76.5643 9.952C76.339 9.62267 75.9663 9.458 75.4463 9.458C74.805 9.458 74.311 9.68333 73.9643 10.134C73.635 10.5847 73.4703 11.226 73.4703 12.058V16.894C73.4703 17.6567 73.271 18.2373 72.8723 18.636C72.4736 19.0347 71.9016 19.234 71.1563 19.234C70.411 19.234 69.839 19.0347 69.4403 18.636C69.0416 18.2373 68.8423 17.6567 68.8423 16.894V11.564C68.8423 10.8187 68.7296 10.2813 68.5043 9.952C68.279 9.62267 67.9063 9.458 67.3863 9.458C66.7623 9.458 66.277 9.68333 65.9303 10.134C65.601 10.5847 65.4363 11.226 65.4363 12.058V16.894C65.4363 18.454 64.6563 19.234 63.0963 19.234ZM86.5572 19.234C85.8292 19.234 85.2659 19.0347 84.8672 18.636C84.4686 18.2373 84.2692 17.6567 84.2692 16.894V8.288C84.2692 7.54267 84.4599 6.97067 84.8412 6.572C85.2399 6.17333 85.8032 5.974 86.5312 5.974C87.2592 5.974 87.8139 6.17333 88.1952 6.572C88.5766 6.97067 88.7672 7.54267 88.7672 8.288V9.718L88.4812 8.444C88.8452 7.68133 89.3826 7.07467 90.0932 6.624C90.8212 6.156 91.6792 5.922 92.6672 5.922C93.6032 5.922 94.4006 6.14733 95.0592 6.598C95.7352 7.04867 96.2206 7.73333 96.5152 8.652H96.1512C96.5499 7.80267 97.1479 7.13533 97.9452 6.65C98.7426 6.16467 99.6266 5.922 100.597 5.922C101.603 5.922 102.426 6.12133 103.067 6.52C103.709 6.90133 104.185 7.508 104.497 8.34C104.827 9.15467 104.991 10.186 104.991 11.434V16.894C104.991 17.6567 104.783 18.2373 104.367 18.636C103.969 19.0347 103.397 19.234 102.651 19.234C101.923 19.234 101.36 19.0347 100.961 18.636C100.563 18.2373 100.363 17.6567 100.363 16.894V11.564C100.363 10.8187 100.251 10.2813 100.025 9.952C99.7999 9.62267 99.4272 9.458 98.9072 9.458C98.2659 9.458 97.7719 9.68333 97.4252 10.134C97.0959 10.5847 96.9312 11.226 96.9312 12.058V16.894C96.9312 17.6567 96.7319 18.2373 96.3332 18.636C95.9346 19.0347 95.3626 19.234 94.6172 19.234C93.8719 19.234 93.2999 19.0347 92.9012 18.636C92.5026 18.2373 92.3032 17.6567 92.3032 16.894V11.564C92.3032 10.8187 92.1906 10.2813 91.9652 9.952C91.7399 9.62267 91.3672 9.458 90.8472 9.458C90.2232 9.458 89.7379 9.68333 89.3912 10.134C89.0619 10.5847 88.8972 11.226 88.8972 12.058V16.894C88.8972 18.454 88.1172 19.234 86.5572 19.234ZM114.646 19.286C113.086 19.286 111.734 19.0173 110.59 18.48C109.464 17.9253 108.597 17.1453 107.99 16.14C107.384 15.1347 107.08 13.9473 107.08 12.578C107.08 11.2607 107.366 10.108 107.938 9.12C108.528 8.11467 109.325 7.33467 110.33 6.78C111.353 6.208 112.514 5.922 113.814 5.922C114.768 5.922 115.634 6.078 116.414 6.39C117.194 6.68467 117.862 7.12667 118.416 7.716C118.971 8.288 119.387 8.98133 119.664 9.796C119.959 10.6107 120.106 11.5207 120.106 12.526C120.106 12.8727 120.011 13.1327 119.82 13.306C119.63 13.462 119.326 13.54 118.91 13.54H110.954V11.356H116.726L116.31 11.694C116.31 11.0527 116.224 10.5327 116.05 10.134C115.877 9.73533 115.617 9.432 115.27 9.224C114.941 9.016 114.525 8.912 114.022 8.912C113.485 8.912 113.017 9.042 112.618 9.302C112.237 9.54467 111.942 9.90867 111.734 10.394C111.526 10.8793 111.422 11.486 111.422 12.214V12.448C111.422 13.6787 111.691 14.5627 112.228 15.1C112.783 15.62 113.632 15.88 114.776 15.88C115.158 15.88 115.591 15.8367 116.076 15.75C116.579 15.646 117.056 15.5073 117.506 15.334C117.957 15.1607 118.347 15.1347 118.676 15.256C119.006 15.36 119.257 15.5507 119.43 15.828C119.621 16.088 119.725 16.3913 119.742 16.738C119.76 17.0673 119.682 17.3967 119.508 17.726C119.335 18.038 119.049 18.2807 118.65 18.454C118.044 18.7313 117.394 18.9393 116.7 19.078C116.024 19.2167 115.34 19.286 114.646 19.286ZM124.388 19.234C123.66 19.234 123.097 19.0347 122.698 18.636C122.299 18.2373 122.1 17.6567 122.1 16.894V8.288C122.1 7.54267 122.291 6.97067 122.672 6.572C123.071 6.17333 123.634 5.974 124.362 5.974C125.09 5.974 125.645 6.17333 126.026 6.572C126.407 6.97067 126.598 7.54267 126.598 8.288V9.51L126.312 8.444C126.728 7.62933 127.317 7.00533 128.08 6.572C128.86 6.13867 129.744 5.922 130.732 5.922C131.755 5.922 132.595 6.12133 133.254 6.52C133.913 6.90133 134.407 7.508 134.736 8.34C135.065 9.15467 135.23 10.186 135.23 11.434V16.894C135.23 17.6567 135.031 18.2373 134.632 18.636C134.233 19.0347 133.661 19.234 132.916 19.234C132.171 19.234 131.599 19.0347 131.2 18.636C130.801 18.2373 130.602 17.6567 130.602 16.894V11.616C130.602 10.836 130.463 10.2813 130.186 9.952C129.926 9.62267 129.536 9.458 129.016 9.458C128.323 9.458 127.768 9.68333 127.352 10.134C126.936 10.5673 126.728 11.1567 126.728 11.902V16.894C126.728 18.454 125.948 19.234 124.388 19.234ZM142.86 19.286C141.768 19.286 140.797 19.0173 139.948 18.48C139.116 17.9427 138.457 17.1713 137.972 16.166C137.504 15.1607 137.27 13.9733 137.27 12.604C137.27 11.2 137.504 10.004 137.972 9.016C138.457 8.028 139.116 7.26533 139.948 6.728C140.797 6.19067 141.768 5.922 142.86 5.922C143.813 5.922 144.671 6.14733 145.434 6.598C146.196 7.04867 146.708 7.62933 146.968 8.34H146.682V2.776C146.682 2.01333 146.881 1.43267 147.28 1.034C147.678 0.635332 148.25 0.435999 148.996 0.435999C149.724 0.435999 150.287 0.635332 150.686 1.034C151.102 1.43267 151.31 2.01333 151.31 2.776V16.894C151.31 17.6567 151.11 18.2373 150.712 18.636C150.33 19.0347 149.767 19.234 149.022 19.234C148.294 19.234 147.73 19.0347 147.332 18.636C146.933 18.2373 146.734 17.6567 146.734 16.894V15.412L147.02 16.686C146.777 17.466 146.266 18.0987 145.486 18.584C144.723 19.052 143.848 19.286 142.86 19.286ZM144.342 15.88C144.81 15.88 145.226 15.7673 145.59 15.542C145.954 15.2993 146.231 14.944 146.422 14.476C146.63 13.9907 146.734 13.3667 146.734 12.604C146.734 11.4427 146.508 10.6107 146.058 10.108C145.607 9.588 145.035 9.328 144.342 9.328C143.874 9.328 143.458 9.44067 143.094 9.666C142.73 9.89133 142.444 10.2467 142.236 10.732C142.028 11.2 141.924 11.824 141.924 12.604C141.924 13.748 142.149 14.58 142.6 15.1C143.05 15.62 143.631 15.88 144.342 15.88ZM160.959 19.286C159.399 19.286 158.047 19.0173 156.903 18.48C155.776 17.9253 154.909 17.1453 154.303 16.14C153.696 15.1347 153.393 13.9473 153.393 12.578C153.393 11.2607 153.679 10.108 154.251 9.12C154.84 8.11467 155.637 7.33467 156.643 6.78C157.665 6.208 158.827 5.922 160.127 5.922C161.08 5.922 161.947 6.078 162.727 6.39C163.507 6.68467 164.174 7.12667 164.729 7.716C165.283 8.288 165.699 8.98133 165.977 9.796C166.271 10.6107 166.419 11.5207 166.419 12.526C166.419 12.8727 166.323 13.1327 166.133 13.306C165.942 13.462 165.639 13.54 165.223 13.54H157.267V11.356H163.039L162.623 11.694C162.623 11.0527 162.536 10.5327 162.363 10.134C162.189 9.73533 161.929 9.432 161.583 9.224C161.253 9.016 160.837 8.912 160.335 8.912C159.797 8.912 159.329 9.042 158.931 9.302C158.549 9.54467 158.255 9.90867 158.047 10.394C157.839 10.8793 157.735 11.486 157.735 12.214V12.448C157.735 13.6787 158.003 14.5627 158.541 15.1C159.095 15.62 159.945 15.88 161.089 15.88C161.47 15.88 161.903 15.8367 162.389 15.75C162.891 15.646 163.368 15.5073 163.819 15.334C164.269 15.1607 164.659 15.1347 164.989 15.256C165.318 15.36 165.569 15.5507 165.743 15.828C165.933 16.088 166.037 16.3913 166.055 16.738C166.072 17.0673 165.994 17.3967 165.821 17.726C165.647 18.038 165.361 18.2807 164.963 18.454C164.356 18.7313 163.706 18.9393 163.013 19.078C162.337 19.2167 161.652 19.286 160.959 19.286ZM173.405 19.286C172.313 19.286 171.342 19.0173 170.493 18.48C169.661 17.9427 169.002 17.1713 168.517 16.166C168.049 15.1607 167.815 13.9733 167.815 12.604C167.815 11.2 168.049 10.004 168.517 9.016C169.002 8.028 169.661 7.26533 170.493 6.728C171.342 6.19067 172.313 5.922 173.405 5.922C174.358 5.922 175.216 6.14733 175.979 6.598C176.741 7.04867 177.253 7.62933 177.513 8.34H177.227V2.776C177.227 2.01333 177.426 1.43267 177.825 1.034C178.223 0.635332 178.795 0.435999 179.541 0.435999C180.269 0.435999 180.832 0.635332 181.231 1.034C181.647 1.43267 181.855 2.01333 181.855 2.776V16.894C181.855 17.6567 181.655 18.2373 181.257 18.636C180.875 19.0347 180.312 19.234 179.567 19.234C178.839 19.234 178.275 19.0347 177.877 18.636C177.478 18.2373 177.279 17.6567 177.279 16.894V15.412L177.565 16.686C177.322 17.466 176.811 18.0987 176.031 18.584C175.268 19.052 174.393 19.286 173.405 19.286ZM174.887 15.88C175.355 15.88 175.771 15.7673 176.135 15.542C176.499 15.2993 176.776 14.944 176.967 14.476C177.175 13.9907 177.279 13.3667 177.279 12.604C177.279 11.4427 177.053 10.6107 176.603 10.108C176.152 9.588 175.58 9.328 174.887 9.328C174.419 9.328 174.003 9.44067 173.639 9.666C173.275 9.89133 172.989 10.2467 172.781 10.732C172.573 11.2 172.469 11.824 172.469 12.604C172.469 13.748 172.694 14.58 173.145 15.1C173.595 15.62 174.176 15.88 174.887 15.88Z" fill="#0640B9"/>
<path d="M190.597 19.234L190.363 16.504L192.209 16.4C193.752 16.296 194.523 15.4467 194.523 13.852V0.669999H197.851V13.826C197.851 17.1193 196.144 18.8873 192.729 19.13L190.597 19.234ZM207.353 19.26C206.036 19.26 204.892 18.9913 203.921 18.454C202.951 17.9167 202.197 17.154 201.659 16.166C201.122 15.1607 200.853 13.982 200.853 12.63C200.853 11.278 201.122 10.108 201.659 9.12C202.197 8.132 202.951 7.36933 203.921 6.832C204.892 6.29467 206.036 6.026 207.353 6.026C208.671 6.026 209.815 6.29467 210.785 6.832C211.756 7.36933 212.51 8.132 213.047 9.12C213.585 10.108 213.853 11.278 213.853 12.63C213.853 13.982 213.585 15.1607 213.047 16.166C212.51 17.154 211.756 17.9167 210.785 18.454C209.815 18.9913 208.671 19.26 207.353 19.26ZM207.353 16.79C208.324 16.79 209.104 16.4433 209.693 15.75C210.283 15.0393 210.577 13.9993 210.577 12.63C210.577 11.2433 210.283 10.212 209.693 9.536C209.104 8.84267 208.324 8.496 207.353 8.496C206.383 8.496 205.603 8.84267 205.013 9.536C204.424 10.212 204.129 11.2433 204.129 12.63C204.129 13.9993 204.424 15.0393 205.013 15.75C205.603 16.4433 206.383 16.79 207.353 16.79ZM223.868 19.26C222.932 19.26 222.091 19.052 221.346 18.636C220.618 18.22 220.072 17.6567 219.708 16.946V19H216.536V0.669999H219.786V8.158C220.167 7.51667 220.713 7.00533 221.424 6.624C222.152 6.22533 222.966 6.026 223.868 6.026C224.994 6.026 225.974 6.29467 226.806 6.832C227.638 7.36933 228.288 8.132 228.756 9.12C229.224 10.0907 229.458 11.2607 229.458 12.63C229.458 13.982 229.224 15.1607 228.756 16.166C228.288 17.154 227.629 17.9167 226.78 18.454C225.948 18.9913 224.977 19.26 223.868 19.26ZM222.958 16.79C223.928 16.79 224.708 16.4433 225.298 15.75C225.887 15.0393 226.182 13.9993 226.182 12.63C226.182 11.2433 225.887 10.212 225.298 9.536C224.708 8.84267 223.928 8.496 222.958 8.496C221.987 8.496 221.207 8.84267 220.618 9.536C220.028 10.212 219.734 11.2433 219.734 12.63C219.734 13.9993 220.028 15.0393 220.618 15.75C221.207 16.4433 221.987 16.79 222.958 16.79ZM236.78 19.26C235.705 19.26 234.7 19.13 233.764 18.87C232.828 18.61 232.048 18.2373 231.424 17.752L232.256 15.62C232.897 16.0533 233.616 16.3913 234.414 16.634C235.211 16.8593 236.008 16.972 236.806 16.972C237.638 16.972 238.253 16.8333 238.652 16.556C239.068 16.2613 239.276 15.88 239.276 15.412C239.276 14.684 238.738 14.216 237.664 14.008L235.064 13.514C232.862 13.098 231.762 11.954 231.762 10.082C231.762 9.25 231.987 8.53067 232.438 7.924C232.906 7.31733 233.547 6.84933 234.362 6.52C235.176 6.19067 236.112 6.026 237.17 6.026C238.071 6.026 238.938 6.156 239.77 6.416C240.602 6.65867 241.312 7.03133 241.902 7.534L241.018 9.666C240.515 9.25 239.908 8.92067 239.198 8.678C238.504 8.43533 237.837 8.314 237.196 8.314C236.346 8.314 235.714 8.46133 235.298 8.756C234.899 9.05067 234.7 9.44067 234.7 9.926C234.7 10.6887 235.194 11.1567 236.182 11.33L238.782 11.824C239.908 12.032 240.758 12.4133 241.33 12.968C241.919 13.5227 242.214 14.268 242.214 15.204C242.214 16.4693 241.72 17.466 240.732 18.194C239.744 18.9047 238.426 19.26 236.78 19.26Z" fill="#246BFC"/>
<path d="M244.535 19V15.386H248.175V19H244.535Z" fill="#0843BE"/>
</svg>
