<svg width="27" height="31" viewBox="0 0 27 31" fill="none" xmlns="http://www.w3.org/2000/svg">
  <path
    d="M11.5344 0C8.47532 3.43496e-06 5.54151 1.23652 3.37838 3.43754C1.21526 5.63856 2.26383e-05 8.62379 0 11.7365C-1.58866e-06 14.8492 1.21523 17.8345 3.37835 20.0355C5.54148 22.2366 8.4753 23.4731 11.5344 23.4731C14.5935 23.4731 17.5274 22.2366 19.6905 20.0355C21.8536 17.8345 23.0688 14.8492 23.0688 11.7365C23.0688 8.62379 21.8536 5.63856 19.6905 3.43754C17.5273 1.23652 14.5935 3.43496e-06 11.5344 0ZM11.5344 2.04002C12.8123 2.04001 14.0776 2.29082 15.2582 2.77811C16.4388 3.2654 17.5115 3.97964 18.4151 4.88004C19.3187 5.78045 20.0354 6.84938 20.5244 8.02581C21.0135 9.20225 21.2652 10.4631 21.2652 11.7365C21.2652 13.0099 21.0135 14.2708 20.5244 15.4472C20.0354 16.6236 19.3187 17.6926 18.4151 18.593C17.5115 19.4934 16.4388 20.2076 15.2582 20.6949C14.0776 21.1822 12.8123 21.433 11.5344 21.433C8.95369 21.433 6.47867 20.4114 4.65382 18.5929C2.82897 16.7745 1.80378 14.3082 1.80378 11.7365C1.80378 9.16485 2.82897 6.69852 4.65382 4.88007C6.47867 3.06163 8.95369 2.04003 11.5344 2.04002Z"
    fill="#000"/>
  <path
    d="M25.29 26.4176L20.0801 20.272C19.182 19.2126 18.0861 18.8441 17.6322 19.4488C17.1784 20.0536 17.5385 21.4026 18.4366 22.462L23.6465 28.6077C24.5446 29.667 25.6405 30.0356 26.0943 29.4308C26.5482 28.8261 26.188 27.477 25.29 26.4176Z"
    fill="#000"/>
</svg>
