<svg width="15" height="15" viewBox="0 0 15 15" fill="none" xmlns="http://www.w3.org/2000/svg">
<path fill-rule="evenodd" clip-rule="evenodd" d="M0 1.08974C0 0.487895 0.285502 0 0.637688 0H14.1417C14.4938 0 14.7793 0.487895 14.7793 1.08974C14.7793 1.69159 14.4938 2.17949 14.1417 2.17949H0.637688C0.285502 2.17949 0 1.69159 0 1.08974ZM0 7.5C0 6.89815 0.285502 6.41026 0.637688 6.41026H14.1417C14.4938 6.41026 14.7793 6.89815 14.7793 7.5C14.7793 8.10185 14.4938 8.58974 14.1417 8.58974H0.637688C0.285502 8.58974 0 8.10185 0 7.5ZM0 13.9103C0 13.3084 0.285502 12.8205 0.637688 12.8205H14.1417C14.4938 12.8205 14.7793 13.3084 14.7793 13.9103C14.7793 14.5121 14.4938 15 14.1417 15H0.637688C0.285502 15 0 14.5121 0 13.9103Z" fill="black"/>
</svg>
