<svg width="19" height="15" viewBox="0 0 19 15" fill="none" xmlns="http://www.w3.org/2000/svg">
<path d="M17.7632 0H1.18421C0.530189 0 0 0.530189 0 1.18421C0 1.83823 0.530189 2.36842 1.18421 2.36842H17.7632C18.4172 2.36842 18.9474 1.83823 18.9474 1.18421C18.9474 0.530189 18.4172 0 17.7632 0Z" fill="white"/>
<path d="M17.7632 6.3158H6.71058C6.05656 6.3158 5.52637 6.84598 5.52637 7.50001C5.52637 8.15403 6.05656 8.68422 6.71058 8.68422H17.7632C18.4172 8.68422 18.9474 8.15403 18.9474 7.50001C18.9474 6.84598 18.4172 6.3158 17.7632 6.3158Z" fill="white"/>
<path d="M2.76316 6.3158H1.18421C0.530189 6.3158 0 6.84598 0 7.50001C0 8.15403 0.530189 8.68422 1.18421 8.68422H2.76316C3.41718 8.68422 3.94737 8.15403 3.94737 7.50001C3.94737 6.84598 3.41718 6.3158 2.76316 6.3158Z" fill="#FEC461"/>
<path d="M17.7632 12.6316H1.18421C0.530189 12.6316 0 13.1618 0 13.8158C0 14.4698 0.530189 15 1.18421 15H17.7632C18.4172 15 18.9474 14.4698 18.9474 13.8158C18.9474 13.1618 18.4172 12.6316 17.7632 12.6316Z" fill="white"/>
</svg>
