<svg width="30" height="29" viewBox="0 0 30 29" fill="none" xmlns="http://www.w3.org/2000/svg">
<path d="M12.3939 28.3287C13.333 28.3287 14.2337 27.9556 14.8978 27.2915C15.5619 26.6275 15.935 25.7268 15.935 24.7876H8.85278C8.85278 25.7268 9.22586 26.6275 9.88994 27.2915C10.554 27.9556 11.4547 28.3287 12.3939 28.3287ZM24.3155 20.0449C23.2414 18.8964 21.2466 17.1684 21.2466 11.5085C21.2484 9.47736 20.5423 7.50904 19.2497 5.94222C17.9571 4.3754 16.1589 3.30804 14.1644 2.92376V1.77054C14.1644 1.30097 13.9779 0.850622 13.6458 0.51858C13.3138 0.186539 12.8634 0 12.3939 0C11.9243 0 11.4739 0.186539 11.1419 0.51858C10.8099 0.850622 10.6233 1.30097 10.6233 1.77054V2.92376C8.62883 3.30804 6.8306 4.3754 5.53802 5.94222C4.24544 7.50904 3.53932 9.47736 3.54115 11.5085C3.54115 17.1743 1.54043 18.8964 0.472203 20.0449C0.165596 20.3695 -0.00358914 20.8001 5.77561e-05 21.2465C5.77561e-05 21.7161 0.186597 22.1665 0.518638 22.4985C0.85068 22.8305 1.30102 23.0171 1.7706 23.0171H23.0112C23.2442 23.0179 23.4751 22.9726 23.6906 22.884C23.9061 22.7954 24.102 22.6651 24.267 22.5006C24.4321 22.3361 24.563 22.1407 24.6523 21.9255C24.7417 21.7103 24.7877 21.4795 24.7877 21.2465C24.7915 20.8 24.6222 20.3694 24.3155 20.0449Z" fill="#FEC461"/>
<ellipse cx="22.7901" cy="10.2244" rx="7.20951" ry="7.30347" fill="#F75555"/>
<path d="M21.0856 13.8162L23.9756 7.33616L24.3156 7.91616H20.3456L20.9656 7.28616V9.10616H19.7556V6.81616H25.1956V7.68616L22.4756 13.8162H21.0856Z" fill="white"/>
</svg>
