<svg width="53" height="60" viewBox="0 0 53 60" fill="none" xmlns="http://www.w3.org/2000/svg">
<g clip-path="url(#clip0_346_2573)">
<path d="M26.2521 60C28.2412 60 30.1489 59.2098 31.5554 57.8033C32.9619 56.3968 33.7521 54.4891 33.7521 52.5H18.7521C18.7521 54.4891 19.5422 56.3968 20.9488 57.8033C22.3553 59.2098 24.263 60 26.2521 60ZM51.5021 42.455C49.2271 40.0225 45.0021 36.3625 45.0021 24.375C45.0059 20.073 43.5104 15.9041 40.7727 12.5856C38.035 9.26706 34.2264 7.00639 30.0021 6.1925V3.75C30.0021 2.75544 29.607 1.80161 28.9037 1.09835C28.2005 0.395088 27.2466 0 26.2521 0C25.2575 0 24.3037 0.395088 23.6004 1.09835C22.8972 1.80161 22.5021 2.75544 22.5021 3.75V6.1925C18.2777 7.00639 14.4691 9.26706 11.7314 12.5856C8.99377 15.9041 7.49822 20.073 7.50208 24.375C7.50208 36.375 3.26458 40.0225 1.00208 42.455C0.352685 43.1424 -0.00564866 44.0544 0.00207545 45C0.00207545 45.9946 0.397164 46.9484 1.10043 47.6516C1.80369 48.3549 2.75751 48.75 3.75208 48.75H48.7396C49.2331 48.7516 49.7221 48.6559 50.1785 48.4681C50.6349 48.2804 51.0498 48.0045 51.3993 47.6561C51.7489 47.3077 52.0262 46.8937 52.2154 46.438C52.4047 45.9822 52.5021 45.4935 52.5021 45C52.5101 44.0543 52.1517 43.1423 51.5021 42.455Z" fill="#FEC461"/>
</g>
<ellipse cx="40" cy="36.9538" rx="12" ry="12.1564" fill="black"/>
<path d="M35.872 40.8364V33.0364L36.556 33.7444H34.096V32.4364H37.432V40.8364H35.872ZM38.9903 40.8364V39.7924L42.3263 36.6244C42.6063 36.3604 42.8143 36.1284 42.9503 35.9284C43.0863 35.7284 43.1743 35.5444 43.2143 35.3764C43.2623 35.2004 43.2863 35.0364 43.2863 34.8844C43.2863 34.5004 43.1543 34.2044 42.8903 33.9964C42.6263 33.7804 42.2383 33.6724 41.7263 33.6724C41.3183 33.6724 40.9463 33.7444 40.6103 33.8884C40.2823 34.0324 39.9983 34.2524 39.7583 34.5484L38.6663 33.7084C38.9943 33.2684 39.4343 32.9284 39.9863 32.6884C40.5463 32.4404 41.1703 32.3164 41.8583 32.3164C42.4663 32.3164 42.9943 32.4164 43.4423 32.6164C43.8983 32.8084 44.2463 33.0844 44.4863 33.4444C44.7343 33.8044 44.8583 34.2324 44.8583 34.7284C44.8583 35.0004 44.8223 35.2724 44.7503 35.5444C44.6783 35.8084 44.5423 36.0884 44.3423 36.3844C44.1423 36.6804 43.8503 37.0124 43.4663 37.3804L40.5983 40.1044L40.2743 39.5164H45.1823V40.8364H38.9903Z" fill="white"/>
<defs>
<clipPath id="clip0_346_2573">
<rect width="52.5" height="60" fill="white"/>
</clipPath>
</defs>
</svg>
