<svg width="42" height="38" viewBox="0 0 42 38" fill="none" xmlns="http://www.w3.org/2000/svg">
<path opacity="0.3" d="M27.2497 29.4167H14.7497V27.3333H6.41634V33.5833H35.583V27.3333H27.2497V29.4167ZM4.33301 23.1667H14.7497V16.9167H27.2497V23.1667H37.6663V12.75H4.33301V23.1667Z" fill="black"/>
<path d="M37.5 8.33333H29.1667V4.16667L25 0H16.6667L12.5 4.16667V8.33333H4.16667C1.875 8.33333 0 10.2083 0 12.5V22.9167C0 24.4792 0.833333 25.7917 2.08333 26.5208V33.3333C2.08333 35.6458 3.9375 37.5 6.25 37.5H35.4167C37.7292 37.5 39.5833 35.6458 39.5833 33.3333V26.5C40.8125 25.7708 41.6667 24.4375 41.6667 22.9167V12.5C41.6667 10.2083 39.7917 8.33333 37.5 8.33333ZM16.6667 4.16667H25V8.33333H16.6667V4.16667ZM35.4167 33.3333H6.25V27.0833H14.5833V29.1667H27.0833V27.0833H35.4167V33.3333ZM18.75 25V20.8333H22.9167V25H18.75ZM37.5 22.9167H27.0833V16.6667H14.5833V22.9167H4.16667V12.5H37.5V22.9167Z" fill="black"/>
</svg>
