<svg width="10" height="12" viewBox="0 0 10 12" fill="none" xmlns="http://www.w3.org/2000/svg">
<path d="M1.33334 10V11.3333C1.33334 11.5222 1.26934 11.6807 1.14134 11.8087C1.01334 11.9367 0.855113 12.0004 0.666669 12C0.47778 12 0.319336 11.936 0.191336 11.808C0.0633357 11.68 -0.000442138 11.5218 2.3068e-06 11.3333V7.33333C2.3068e-06 6.96667 0.130669 6.65267 0.392002 6.39133C0.653335 6.13 0.967113 5.99955 1.33334 6H2V4.66667H1.33334C0.966669 4.66667 0.652669 4.536 0.391335 4.27467C0.130002 4.01333 -0.000442138 3.69956 2.3068e-06 3.33333V1.33333C2.3068e-06 0.966667 0.130669 0.652667 0.392002 0.391334C0.653335 0.130001 0.967113 -0.000443312 1.33334 1.13186e-06H8C8.36667 1.13186e-06 8.68067 0.130668 8.942 0.392001C9.20333 0.653334 9.33378 0.967112 9.33333 1.33333V3.33333C9.33333 3.7 9.20267 4.014 8.94133 4.27533C8.68 4.53667 8.36622 4.66711 8 4.66667H7.33333V6H8C8.36667 6 8.68067 6.13067 8.942 6.392C9.20333 6.65333 9.33378 6.96711 9.33333 7.33333V11.3333C9.33333 11.5222 9.26933 11.6807 9.14133 11.8087C9.01333 11.9367 8.85511 12.0004 8.66667 12C8.47778 12 8.31933 11.936 8.19133 11.808C8.06333 11.68 7.99956 11.5218 8 11.3333V10H1.33334ZM3.33333 6H6V4.66667H3.33333V6Z" fill="white"/>
</svg>
