<svg width="12" height="12" viewBox="0 0 12 12" fill="none" xmlns="http://www.w3.org/2000/svg">
<g clip-path="url(#clip0_275_155)">
<path d="M4.30644 0.905888C3.91824 1.01221 3.58092 1.33561 3.45384 1.72381C3.4122 1.85545 3.40296 1.94557 3.39384 2.40073L3.3846 2.92513L2.04 2.93209L0.697677 2.93905L0.589077 2.99221C0.418077 3.07765 0.279477 3.21397 0.196317 3.38497L0.120117 3.53977V4.60261C0.120117 5.65153 0.120117 5.66773 0.173277 5.83873C0.337197 6.35845 0.711477 6.75349 1.21512 6.93373L1.41384 7.00537L3.28764 7.01233L5.16144 7.01689L5.17524 6.80437C5.1984 6.41161 5.34624 6.16669 5.64888 6.01885C5.7852 5.94949 5.82444 5.94265 6.00012 5.94265C6.17568 5.94265 6.21504 5.94961 6.35136 6.01885C6.654 6.16669 6.79956 6.40705 6.825 6.80209L6.8388 7.01929L8.7126 7.01233L10.5863 7.00537L10.785 6.93373C11.2771 6.75817 11.6444 6.37921 11.8201 5.86633L11.8801 5.68837V4.61401V3.53965L11.8039 3.38485C11.7115 3.19777 11.5475 3.04057 11.3695 2.97589C11.247 2.92969 11.1985 2.92741 9.93012 2.92741H8.6154L8.60616 2.40061C8.59692 1.94545 8.58768 1.85533 8.54616 1.72369C8.4168 1.32865 8.08176 1.00981 7.68432 0.905767C7.50864 0.857287 4.47516 0.859687 4.30644 0.905888ZM7.518 1.71445C7.62888 1.76065 7.68204 1.80913 7.7352 1.91545C7.77444 1.99165 7.77912 2.05633 7.77912 2.46529V2.92741H6H4.221V2.46529C4.221 2.05633 4.22568 1.99165 4.26492 1.91545C4.31808 1.81153 4.37124 1.76293 4.47516 1.71673C4.59756 1.66369 7.3932 1.66369 7.518 1.71445Z" fill="white"/>
<path d="M5.80599 6.2431C5.69739 6.28006 5.57499 6.39562 5.50791 6.5203C5.46171 6.60574 5.45703 6.6451 5.45703 7.02862C5.45703 7.41442 5.46171 7.45138 5.50791 7.53922C5.68119 7.86274 6.07863 7.9459 6.34659 7.71478C6.52455 7.56226 6.54303 7.50226 6.54303 7.02862C6.54303 6.6451 6.53835 6.60586 6.49215 6.51802C6.35583 6.26158 6.07167 6.14842 5.80599 6.2431Z" fill="white"/>
<path d="M0.528974 8.90688L0.535934 10.7783L0.605294 10.8776C0.644534 10.9331 0.720854 11.0093 0.776294 11.0486L0.875654 11.118L5.97241 11.125L11.0669 11.1296L11.1685 11.0812C11.2933 11.021 11.4157 10.8779 11.4504 10.7531C11.4689 10.6837 11.4759 10.1593 11.4712 8.85156L11.4642 7.04712L11.2701 7.158C11.0645 7.27584 10.8126 7.36824 10.5885 7.40748C10.5006 7.42368 9.80065 7.43292 8.63389 7.43292H6.81553L6.78781 7.53C6.72085 7.75404 6.54985 7.95048 6.32341 8.0544C6.21949 8.10288 6.16165 8.11452 5.99989 8.11452C5.83813 8.11452 5.78041 8.103 5.67637 8.0544C5.44993 7.95048 5.27893 7.75404 5.21197 7.53L5.18425 7.43292H3.36613C2.19937 7.43292 1.49929 7.42368 1.41157 7.40748C1.14589 7.36128 0.827054 7.2342 0.598334 7.08396L0.524414 7.03548L0.528974 8.90688Z" fill="white"/>
</g>
<defs>
<clipPath id="clip0_275_155">
<rect width="12" height="12" fill="white"/>
</clipPath>
</defs>
</svg>
